<svg width="755" height="200" viewBox="0 0 755 200" fill="none" xmlns="http://www.w3.org/2000/svg">
<path d="M21.9443 93.2955C31.1106 84.1445 49.6599 80.1208 62.4395 81.1025C64.7404 81.2792 66.7587 82.7337 68.8675 83.6694C78.8292 88.0897 65.2208 97.3461 61.7968 99.7126C58.8651 101.74 55.9873 103.896 52.7978 105.488" stroke="#F8D0A1" stroke-width="12" stroke-miterlimit="10" stroke-linecap="round" stroke-linejoin="round"/>
<path d="M25.4635 109C19.7075 109 13.1964 124.125 15.4615 129.87C16.4173 132.295 18.2646 134.221 20.1991 135.561C27.2494 140.448 33.814 139.989 41.7827 139.989C53.6844 139.989 64.482 137.49 76 134.297" stroke="#F8D0A1" stroke-width="12" stroke-miterlimit="10" stroke-linecap="round" stroke-linejoin="round"/>
<path d="M131.486 70.3669C128.98 82.0664 127.289 94.1695 125.111 105.948C123.684 113.667 122.31 121.399 120.578 129.055C119.978 131.704 116.339 141.671 117.815 144.861C118.265 145.832 119.022 143.078 119.447 142.096C119.943 140.951 120.398 139.782 121.007 138.693C122.198 136.563 123.427 134.445 124.838 132.454C131.325 123.294 138.718 113.52 149.388 109.048C150.974 108.384 155.072 107.243 157.054 108.192C168.639 113.741 149.43 142.049 171.76 141.419C173.688 141.365 175.604 141.074 177.509 140.777C181.343 140.179 185.228 139.569 188.866 138.217" stroke="#F8D0A1" stroke-width="12" stroke-miterlimit="10" stroke-linecap="round" stroke-linejoin="round"/>
<path d="M242.038 84.0121C239.226 82.6082 236.76 91.5414 236.253 92.9965C235.228 95.938 234.503 98.9759 233.682 101.98C230.862 112.302 227.793 123.3 227.254 134.067C227.031 138.527 226.425 145.619 228.54 145.619C231.333 145.619 231.701 141.008 233.039 138.56C237.181 130.978 237.006 129.533 242.038 122.5" stroke="#F8D0A1" stroke-width="12" stroke-miterlimit="10" stroke-linecap="round" stroke-linejoin="round"/>
<path d="M260.354 99.4306C257.619 93.9701 271.506 91.4909 275.138 91.0879C284.178 90.0851 287.849 97.8578 291.208 104.564" stroke="#F8D0A1" stroke-width="12" stroke-miterlimit="10" stroke-linecap="round" stroke-linejoin="round"/>
<path d="M257.765 114C252.575 119.182 255.414 127.281 260.336 131.327C270.186 139.426 284.779 141.43 296.975 138.386" stroke="#F8D0A1" stroke-width="12" stroke-miterlimit="10" stroke-linecap="round" stroke-linejoin="round"/>
<path d="M343.617 77.5945C350.333 79.8291 359.878 76.5653 366.758 75.6694C371.951 74.993 376.98 75.0277 382.187 75.0277" stroke="#F8D0A1" stroke-width="12" stroke-miterlimit="10" stroke-linecap="round" stroke-linejoin="round"/>
<path d="M367.403 60.9096C363.11 65.192 359.974 76.6639 357.761 82.0869C356.632 84.8459 355.567 87.6291 354.548 90.4292C353.853 92.3365 353.332 94.305 352.618 96.2051C351.832 98.2959 350.689 100.389 350.689 102.622C350.689 103.05 350.26 103.906 350.689 103.906C352.349 103.906 356.733 99.6884 357.117 99.4136C359.915 97.4182 367.252 93.2188 369.972 92.3543C387.074 86.9226 405.044 97.7833 409.182 114.816C410.041 118.356 410.686 122.185 409.826 125.725C405.954 141.67 386.132 150.548 371.256 150.111C364.623 149.916 357.364 148.413 353.903 141.768C351.329 136.83 353.08 130.453 354.548 125.083" stroke="#F8D0A1" stroke-width="12" stroke-miterlimit="10" stroke-linecap="round" stroke-linejoin="round"/>
<path d="M467.674 73.1025C464.282 77.6205 462.704 83.2604 460.606 88.504C457.168 97.075 453.2 107.496 451.605 116.741C451.175 119.243 449.772 128.626 452.889 131.501C460.414 138.436 475.079 127.369 481.173 123.158" stroke="#F8D0A1" stroke-width="12" stroke-miterlimit="10" stroke-linecap="round" stroke-linejoin="round"/>
<path d="M486.956 91.7126C486.17 91.3183 483.761 91.6948 484.387 91.0709C486.531 88.9317 490.389 90.2475 493.384 89.7875C496.625 89.29 499.811 88.504 503.03 87.8623C508.378 86.7939 532.1 82.4365 534.523 77.5945" stroke="#F8D0A1" stroke-width="12" stroke-miterlimit="10" stroke-linecap="round" stroke-linejoin="round"/>
<path d="M517.169 70.5352C517.169 78.0902 518.011 85.3735 517.809 92.9965C517.512 104.292 517.458 108.818 513.956 119.949C513.037 122.871 511.675 125.665 510.097 128.292C509.083 129.983 507.807 131.582 506.244 132.784C496.749 140.075 491.601 128.436 490.815 120.591C490.751 119.952 490.554 119.252 490.815 118.666C492.945 113.884 497 109.86 501.741 107.756C503.309 107.061 505.302 107.098 506.884 107.756C511.185 109.545 511.88 113.828 513.956 117.382C515.99 120.868 517.937 124.437 520.383 127.65C525 133.715 531.323 138.877 538.381 141.768C552.53 147.564 567.392 139.924 580.16 134.709" stroke="#F8D0A1" stroke-width="12" stroke-miterlimit="10" stroke-linecap="round" stroke-linejoin="round"/>
<path d="M634.154 50C625.441 67.396 621.253 85.5178 617.44 104.548" stroke="#F8D0A1" stroke-width="12" stroke-miterlimit="10" stroke-linecap="round" stroke-linejoin="round"/>
<path d="M616.156 136.635C615.466 138.704 615.182 140.892 614.871 143.052" stroke="#F8D0A1" stroke-width="12" stroke-miterlimit="10" stroke-linecap="round" stroke-linejoin="round"/>
</svg>
