<svg width="755" height="200" viewBox="0 0 755 200" fill="none" xmlns="http://www.w3.org/2000/svg">
<path d="M49.3117 49.5414C54.6317 52.2248 50.6279 61.6724 49.2598 65.7359C46.1034 75.1118 40.6776 86.6947 31.8362 92.2854C24.6932 96.8022 11.964 95.6874 11.0521 85.2784C10.0781 74.1615 22.9729 68.9588 31.9141 67.9939C35.0025 67.6602 38.6092 67.4024 41.1573 69.1799C50.7856 75.8965 46.6165 89.6547 44.5324 98.1099C42.5773 106.043 39.6867 113.755 36.367 121.219C33.3132 128.086 25.9071 142.58 17.7913 146.608" stroke="#F8D0A1" stroke-width="12" stroke-miterlimit="10" stroke-linecap="round" stroke-linejoin="round"/>
<path d="M85.1482 48.4994C93.5913 45.7133 89.9358 59.9582 88.5642 64.7052C87.0176 70.0559 81.5978 82.5993 75.7823 85.4858C72.1575 87.2853 65.5139 88.3427 64.2308 83.1353C61.9304 73.7995 69.0801 68.4389 77.0013 65.8248C93.5468 60.3643 132.467 54.7044 126.649 83.3356C125.882 87.1142 122.161 89.613 119.684 92.5671" stroke="#F8D0A1" stroke-width="12" stroke-miterlimit="10" stroke-linecap="round" stroke-linejoin="round"/>
<path d="M94.2324 99.4262C94.2363 98.2692 93.4235 96.7711 94.2438 95.9557C94.2713 95.9286 97.9567 96.7951 100.005 101.758C101.217 104.697 101.775 107.882 102.287 111.02C104.103 122.146 105.107 134.155 99.8677 144.558C94.9653 154.292 82.4957 165.391 75.5713 151.421" stroke="#F8D0A1" stroke-width="12" stroke-miterlimit="10" stroke-linecap="round" stroke-linejoin="round"/>
<path d="M75.3262 115.048C69.2673 114.392 64.9689 128.33 64.4727 132.921" stroke="#F8D0A1" stroke-width="12" stroke-miterlimit="10" stroke-linecap="round" stroke-linejoin="round"/>
<path d="M122.805 116.021C125.509 111.812 131.144 126.909 130.812 129.983" stroke="#F8D0A1" stroke-width="12" stroke-miterlimit="10" stroke-linecap="round" stroke-linejoin="round"/>
<path d="M180.419 88.9322C186.075 88.9503 191.178 90.4571 196.91 89.9022C206.902 88.9342 226.068 82.6623 232.694 74.4283C239.017 66.5709 231.526 55.127 221.75 57.8875C202.258 63.394 192.022 94.1703 188.592 111.883C187.582 117.098 185.978 120.51 191.302 123.812C197.665 127.759 204.618 126.315 211.448 127.545C217.354 128.607 223.28 129.937 228.844 132.185" stroke="#F8D0A1" stroke-width="12" stroke-miterlimit="10" stroke-linecap="round" stroke-linejoin="round"/>
<path d="M225.981 91C225.911 112.817 201.873 140.065 180 143.12" stroke="#F8D0A1" stroke-width="12" stroke-miterlimit="10" stroke-linecap="round" stroke-linejoin="round"/>
<path d="M251.416 66.8401C261.848 61.6618 267.892 53.1386 280.778 53.1799C284.014 53.1901 289.543 53.8469 290.845 57.797C294.62 69.2551 275.643 83.2136 267.841 87.9834C266.319 88.9125 264.844 89.9274 263.252 90.7196C262.383 91.1489 259.815 92.309 260.499 91.6278C264.947 87.2047 277.428 86.3909 282.496 88.9472C284.632 90.0242 288.293 96.3426 288.883 98.1374C290.161 102.01 291.081 106.022 291.592 110.067C293.18 122.562 288.961 148.096 271.317 146.681C259.477 145.731 253.555 130.533 263.146 122.813C277.609 111.174 300.282 106.427 318.178 106.484" stroke="#F8D0A1" stroke-width="12" stroke-miterlimit="10" stroke-linecap="round" stroke-linejoin="round"/>
<path d="M358.689 46.0938C359.176 44.6504 359.53 39.3686 355.956 41.5002C352.491 43.5654 350.789 49.3041 349.507 52.483C343.372 67.6814 340.706 82.2562 337.446 98.2932" stroke="#F8D0A1" stroke-width="12" stroke-miterlimit="10" stroke-linecap="round" stroke-linejoin="round"/>
<path d="M335.48 140.468C334.297 146.285 334.93 143.539 333.62 148.715" stroke="#F8D0A1" stroke-width="12" stroke-miterlimit="10" stroke-linecap="round" stroke-linejoin="round"/>
</svg>
