<svg width="755" height="200" viewBox="0 0 755 200" fill="none" xmlns="http://www.w3.org/2000/svg">
<path d="M11 114.836C13.1423 113.584 15.4852 113.441 18.0828 112.676C22.4245 111.399 23.879 110.671 28.295 108.233C36.4175 103.749 43.8854 98.2268 50.9395 92.2371C65.1075 80.2068 80.2819 65.7852 87.7925 48.2476C88.6148 46.3276 92.2156 38.1133 87.3486 37.139C80.8076 35.8302 73.5179 44.1019 69.588 47.8033C66.8444 50.3872 64.001 52.899 61.596 55.8012C45.4386 75.2997 39.9672 101.152 30.9591 124.229C27.496 133.102 21.7426 141.464 19.8587 150.89C19.6849 151.761 19.1847 152.977 19.8587 153.556C22.0737 155.455 26.6721 151.091 29.1829 148.668C31.4483 146.482 33.3515 143.949 35.3991 141.559C41.6723 134.235 47.9773 127.36 54.9359 120.675C56.3723 119.295 57.8462 117.951 59.3758 116.676C60.2417 115.954 61.3636 115.218 62.4839 115.343C64.9703 115.619 64.2601 117.843 64.2601 119.342C64.2601 121.267 64.3368 123.194 64.2601 125.118C63.9798 132.131 58.5898 154.889 69.588 154.889C79.0408 154.889 87.5063 147.056 94.0087 141.114C96.3181 139.004 99.8521 134.191 102.889 132.672C104.124 132.054 107.796 133.335 109.105 133.116C114.614 132.197 120.436 129.431 125.09 126.451C128.438 124.307 140.808 115.047 137.522 109.566C134.462 104.462 125.283 108.39 121.981 110.455C112.545 116.357 105.109 128.942 105.109 140.226C105.109 146.204 108.117 149.801 113.989 150.89C131.521 154.139 148.961 142.094 161.499 131.339C165.353 128.033 167.58 126.081 170.379 122.008C171.242 120.751 171.206 118.628 172.599 118.009C174.961 116.958 177.761 117.226 180.147 116.231C192.276 111.174 202.605 101.912 211.228 92.2371C217.358 85.3588 222.643 78.277 226.768 70.0202C228.15 67.2542 231.07 63.7562 229.432 61.1334C228.265 59.2654 223.345 60.8811 222.772 61.1334C220.402 62.177 218.206 63.6086 216.112 65.1323C213.307 67.1735 210.668 69.4437 208.119 71.7974C191.775 86.8959 174.614 105.911 170.823 128.673C169.915 134.12 168.562 144.512 175.263 147.335C183.91 150.978 193.726 142.608 200.127 138.004C207.999 132.342 214.69 125.178 222.772 119.786C225.48 117.979 230.406 117.743 233.428 116.231C243.479 111.202 252.564 103.634 260.071 95.3475C266.37 88.39 273.082 80.7255 275.167 71.3531C275.815 68.4214 276.197 68.0487 273.834 66.0213C272.265 64.6758 266.535 66.1716 265.839 66.4656C263.456 67.4749 261.29 68.9585 259.182 70.4645C256.095 72.6694 253.016 74.9274 250.301 77.5738C237.874 89.682 222.547 112.414 220.996 130.006C220.5 135.637 220.904 142.643 227.212 145.113C241.522 150.717 264.223 134.214 276.051 127.34C279.5 125.337 282.949 123.331 286.267 121.119C287.703 120.161 289.358 119.532 290.707 118.453C290.963 118.246 291.446 117.712 291.151 117.564C289.5 116.74 282.791 126.926 282.268 128.228C277.038 141.313 287.876 150.562 300.919 149.112C303.668 148.807 306.358 147.955 308.91 146.891C317.03 143.505 327.997 135.664 327.56 125.563C327.226 117.893 319.499 113.254 312.905 111.788C311.993 111.585 308.701 110.887 307.577 111.788C305.764 113.242 311.481 117.938 311.576 118.009C313.011 119.107 314.411 120.283 316.015 121.119C323.066 124.801 331.406 124.544 339.102 124.229C349.644 123.799 360.116 122.354 370.58 120.749" stroke="#F8D0A1" stroke-width="12" stroke-miterlimit="10" stroke-linecap="round" stroke-linejoin="round"/>
<path d="M431.291 56.1601C431.291 55.5446 431.857 54.0705 431.291 54.3133C428.861 55.3561 426.702 57.0581 424.83 58.9305C421.739 62.0243 419.148 65.5888 416.525 69.0891C405.869 83.3121 398.012 98.2111 390.686 114.34" stroke="#F8D0A1" stroke-width="12" stroke-miterlimit="10" stroke-linecap="round" stroke-linejoin="round"/>
<path d="M376.844 162.361C376.231 162.669 375.613 162.977 375 163.284" stroke="#F8D0A1" stroke-width="12" stroke-miterlimit="10" stroke-linecap="round" stroke-linejoin="round"/>
</svg>
