<svg width="755" height="200" viewBox="0 0 755 200" fill="none" xmlns="http://www.w3.org/2000/svg">
<path d="M20.9775 85.2882C18.4467 80.2232 14.3945 90.2764 13.8089 91.5652C9.7807 100.434 8.50663 114.88 20.9775 114.88" stroke="#F8D0A1" stroke-width="12" stroke-miterlimit="10" stroke-linecap="round" stroke-linejoin="round"/>
<path d="M19.185 88.8751C17.1623 84.8258 25.8113 80.006 29.0417 79.0111C48.0551 73.1568 58.0624 89.0778 49.6513 105.912C48.3155 108.586 46.3006 110.89 44.2746 113.086C42.0096 115.542 38.6534 117.57 35.3141 117.57" stroke="#F8D0A1" stroke-width="12" stroke-miterlimit="10" stroke-linecap="round" stroke-linejoin="round"/>
<path d="M98.0381 44.936C98.3366 44.3383 98.9343 42.4742 98.9343 43.1427C98.9343 47.2082 94.3827 49.8967 91.7657 53.0067C89.0312 56.256 86.5492 59.7201 83.7014 62.8702C78.3165 68.8261 72.3512 74.2287 66.6762 79.908C64.8842 81.7013 63.0919 83.4949 61.2999 85.2882C60.4038 86.185 59.1785 89.1128 58.6118 87.9783C58.0361 86.8264 62.8402 79.5153 63.0919 79.0112C64.5614 76.07 64.9923 71.9558 66.6762 69.1472C70.4661 62.8265 82.3554 62.3634 88.1815 62.8702C107.962 64.5919 121.547 81.9126 134.776 95.1521" stroke="#F8D0A1" stroke-width="12" stroke-miterlimit="10" stroke-linecap="round" stroke-linejoin="round"/>
<path d="M84.5973 95.1521C82.8738 95.7271 77.4044 96.049 79.2211 96.049C81.6107 96.049 84.0055 96.2079 86.3896 96.049C91.9849 95.6755 97.133 93.8094 102.518 92.462" stroke="#F8D0A1" stroke-width="12" stroke-miterlimit="10" stroke-linecap="round" stroke-linejoin="round"/>
<path d="M72.0526 134.607C68.8214 128.14 76.4123 123.426 81.0131 120.26C88.0319 115.431 104.198 106.697 112.375 114.88C120.215 122.726 106.789 134.66 99.8303 136.401" stroke="#F8D0A1" stroke-width="12" stroke-miterlimit="10" stroke-linecap="round" stroke-linejoin="round"/>
<path d="M79.1936 144.661C90.5764 144.661 101.959 144.661 113.342 144.661" stroke="#F8D0A1" stroke-width="12" stroke-miterlimit="10" stroke-linecap="round" stroke-linejoin="round"/>
<path d="M178.387 86.8603C173.978 84.6542 173.202 92.1925 172.756 95.3123C171.606 103.368 179.117 113.964 188.24 109.399" stroke="#F8D0A1" stroke-width="12" stroke-miterlimit="10" stroke-linecap="round" stroke-linejoin="round"/>
<path d="M182.61 85.4515C182.61 80.2905 192.472 81.2255 195.279 81.2255C206.459 81.2255 211.928 92.7096 205.836 101.651C203.195 105.528 198.407 109.148 194.575 112.217" stroke="#F8D0A1" stroke-width="12" stroke-miterlimit="10" stroke-linecap="round" stroke-linejoin="round"/>
<path d="M230.791 52.8268C222.124 57.163 219.187 73.4897 229.584 76.957" stroke="#F8D0A1" stroke-width="12" stroke-miterlimit="10" stroke-linecap="round" stroke-linejoin="round"/>
<path d="M231.994 49.2073C249.831 49.2073 269.217 44.513 287.455 46.7942C304.726 48.9546 304.305 59.6831 291.069 68.5113C286.802 71.36 282.52 72.1592 277.809 73.3374" stroke="#F8D0A1" stroke-width="12" stroke-miterlimit="10" stroke-linecap="round" stroke-linejoin="round"/>
<path d="M254.86 50.7254C249.701 50.7254 243.94 69.3184 248.525 72.3776" stroke="#F8D0A1" stroke-width="12" stroke-miterlimit="10" stroke-linecap="round" stroke-linejoin="round"/>
<path d="M270.692 50.7254C266.126 53.0102 264.888 61.1261 264.888 65.5123" stroke="#F8D0A1" stroke-width="12" stroke-miterlimit="10" stroke-linecap="round" stroke-linejoin="round"/>
<path d="M240.083 76.6021C251.408 76.6021 263.437 75.1165 274.384 72.3776" stroke="#F8D0A1" stroke-width="12" stroke-miterlimit="10" stroke-linecap="round" stroke-linejoin="round"/>
<path d="M239.556 85.5798C232.305 85.5798 218.671 100.035 219.505 106.704C220.433 114.137 234.715 103.256 236.39 101.951C237.393 101.171 239.556 101.108 239.556 99.8385C239.556 98.6576 237.279 100.645 236.39 101.423C235.639 102.078 234.983 102.831 234.279 103.535C232.608 105.21 231.101 107.046 229.528 108.816C227.956 110.586 226.304 112.286 224.782 114.097C222.918 116.31 214.204 127.285 218.974 130.468C221.314 132.029 227.598 130.03 229.002 129.412C236.402 126.154 245.175 119.626 250.11 113.041" stroke="#F8D0A1" stroke-width="12" stroke-miterlimit="10" stroke-linecap="round" stroke-linejoin="round"/>
<path d="M223.665 137.119C221.786 141.274 220.586 146.714 222.792 150.9" stroke="#F8D0A1" stroke-width="12" stroke-miterlimit="10" stroke-linecap="round" stroke-linejoin="round"/>
<path d="M237.912 141.132C237.912 145.752 236.524 153.093 238.553 157.153" stroke="#F8D0A1" stroke-width="12" stroke-miterlimit="10" stroke-linecap="round" stroke-linejoin="round"/>
<path d="M251.361 138.569C251.361 142.257 252.312 145.906 253.283 149.463" stroke="#F8D0A1" stroke-width="12" stroke-miterlimit="10" stroke-linecap="round" stroke-linejoin="round"/>
<path d="M271.852 88.5847C266.846 100.271 257.912 110.19 250.079 119.985" stroke="#F8D0A1" stroke-width="12" stroke-miterlimit="10" stroke-linecap="round" stroke-linejoin="round"/>
<path d="M269.292 101.401C266.28 110.445 263.185 134.553 273.775 139.851" stroke="#F8D0A1" stroke-width="12" stroke-miterlimit="10" stroke-linecap="round" stroke-linejoin="round"/>
<path d="M287.915 84.158C288.12 86.2602 288.324 88.3623 288.529 90.4649" stroke="#F8D0A1" stroke-width="12" stroke-miterlimit="10" stroke-linecap="round" stroke-linejoin="round"/>
<path d="M271.651 102.198C272.269 99.4871 278.537 96.5448 280.825 95.7286C286.92 93.5536 297.663 91.2347 302.166 97.089" stroke="#F8D0A1" stroke-width="12" stroke-miterlimit="10" stroke-linecap="round" stroke-linejoin="round"/>
<path d="M273.067 113.997C279.677 111.387 289.874 109.569 296.861 110.608" stroke="#F8D0A1" stroke-width="12" stroke-miterlimit="10" stroke-linecap="round" stroke-linejoin="round"/>
<path d="M276.901 126.091C284.655 124.541 293.798 123.295 301.659 124.464" stroke="#F8D0A1" stroke-width="12" stroke-miterlimit="10" stroke-linecap="round" stroke-linejoin="round"/>
<path d="M287.172 98.2908C289.04 106.567 289.504 115.298 290.188 123.729C290.456 127 290.904 133.076 290.66 136.683C290.448 139.797 289.48 142.758 289.17 145.849" stroke="#F8D0A1" stroke-width="12" stroke-miterlimit="10" stroke-linecap="round" stroke-linejoin="round"/>
<path d="M276.685 140.173C277.239 145.832 285.45 148.365 289.976 148.688C296.924 149.183 305.728 148.059 311.855 144.69" stroke="#F8D0A1" stroke-width="12" stroke-miterlimit="10" stroke-linecap="round" stroke-linejoin="round"/>
<path d="M376.211 49.5248C368.606 64.7532 358.335 85.9855 358.335 103.199" stroke="#F8D0A1" stroke-width="12" stroke-miterlimit="10" stroke-linecap="round" stroke-linejoin="round"/>
<path d="M357.619 134.688C354.284 138.026 353.329 144.414 353.329 149.001" stroke="#F8D0A1" stroke-width="12" stroke-miterlimit="10" stroke-linecap="round" stroke-linejoin="round"/>
</svg>
