<svg width="78" height="78" viewBox="0 0 78 78" fill="none" xmlns="http://www.w3.org/2000/svg">
<path d="M60.7771 6.66457C60.0178 6.15462 59.241 5.67247 58.4496 5.21761C48.6732 -0.399221 36.5535 -1.76757 25.2088 2.52157C13.8638 6.81078 5.68092 15.855 2.06573 26.5348C1.77285 27.3996 1.5097 28.2749 1.27748 29.1598C-0.705371 36.7191 -0.446372 44.9409 2.52172 52.7914C5.50685 60.6869 10.7959 67.0509 17.3356 71.4093C18.0969 71.9165 18.8745 72.3975 19.6679 72.8492C29.4239 78.4103 41.4922 79.7504 52.7922 75.4782C64.0919 71.2061 72.2552 62.217 75.8916 51.5926C76.1875 50.7291 76.4526 49.8539 76.6877 48.9699C78.708 41.3752 78.4639 33.1038 75.4787 25.2083C72.5107 17.3579 67.2656 11.0211 60.7771 6.66457ZM56.9228 7.49993C56.4834 8.09296 56.0117 8.68733 55.5043 9.28189C53.9977 11.0473 52.25 12.744 50.3017 14.3496C48.3813 11.9074 46.3235 9.73541 44.1672 7.89527C41.4492 5.57513 38.7027 3.89083 36.0159 2.86248C43.3783 2.2576 50.6606 3.94421 56.9228 7.49993ZM53.8196 21.3965C54.1876 21.2573 54.5674 21.2082 54.9366 21.2338C55.9396 21.3032 56.8618 21.9398 57.2401 22.9403C57.5332 23.7154 57.4376 24.5434 57.0513 25.21C56.7556 25.7201 56.2898 26.1362 55.6964 26.3606C55.3507 26.4913 54.9948 26.5446 54.647 26.5294C53.6178 26.4848 52.6624 25.8403 52.2756 24.8172C51.9739 24.0193 52.0859 23.1661 52.5009 22.4899C52.7978 22.0063 53.2488 21.6123 53.8196 21.3965ZM27.4921 4.68668C31.9154 3.66091 37.1455 5.50476 42.3882 9.97956C44.4068 11.7022 46.3362 13.739 48.1409 16.032C44.2123 18.9234 39.6144 21.4568 34.5937 23.4699L27.4921 4.68668ZM35.5629 26.0334C40.8181 23.9304 45.6422 21.2716 49.7768 18.2281C50.1884 18.8124 50.5922 19.4115 50.988 20.0231C49.5059 21.4762 48.9328 23.7236 49.7127 25.7863C50.6633 28.3005 53.302 29.6913 55.8548 29.1595C56.1134 29.7563 56.365 30.3602 56.6086 30.9699L43.4458 35.9464C42.3294 34.3205 40.3943 33.4306 38.4371 33.6355L35.5629 26.0334ZM60.8414 47.6115C55.7402 48.067 50.3789 49.2638 45.0621 51.1582L42.1269 43.395C43.6822 42.2885 44.5394 40.4232 44.3723 38.5257L57.5743 33.5344C59.2559 38.2833 60.3564 43.0546 60.8414 47.6115ZM64.8833 56.7148C65.4006 58.0837 64.7082 59.6181 63.3397 60.1355C63.31 60.1467 63.2802 60.154 63.2504 60.164C62.2915 60.4884 61.2669 60.2314 60.5725 59.5718C60.2923 59.3059 60.0644 58.9769 59.9188 58.5918C59.4561 57.3679 59.9625 56.0144 61.0523 55.3708C61.1815 55.2942 61.3175 55.226 61.4625 55.1711C62.2623 54.8688 63.117 54.9817 63.7941 55.399C64.276 55.6964 64.6682 56.1458 64.8833 56.7148ZM24.929 5.65574L32.0305 24.439C26.9334 26.2511 21.8096 27.3932 16.9506 27.8246C16.9118 27.1342 16.8879 26.4499 16.8788 25.7732C16.985 25.7403 17.0906 25.7052 17.1958 25.6654C19.9777 24.6136 21.3854 21.4944 20.3336 18.7125C19.8731 17.4944 19.0163 16.5402 17.9653 15.94C19.2639 10.9754 21.6641 7.41828 24.929 5.65574ZM17.1771 30.5531C22.291 30.1005 27.6676 28.9022 32.9997 27.0025L35.8739 34.6046C34.2703 35.7459 33.4083 37.6933 33.6466 39.6512L20.4837 44.6278C18.79 39.8822 17.6764 35.1123 17.1771 30.5531ZM12.806 21.5585C12.2885 20.1897 12.981 18.6553 14.3498 18.1378C14.4708 18.0921 14.593 18.0591 14.7157 18.0318C15.7023 17.8132 16.7174 18.1794 17.3421 18.9428C17.5192 19.1592 17.6663 19.4059 17.7705 19.6816C18.1872 20.7836 17.8185 21.9924 16.9446 22.6918C16.7334 22.8613 16.4934 23.0015 16.2268 23.1023C15.5371 23.3631 14.8058 23.3159 14.1834 23.0307C13.5703 22.7496 13.0628 22.2376 12.806 21.5585ZM17.3304 9.927C16.5077 11.4978 15.8328 13.2699 15.3192 15.2275C14.6744 15.2231 14.0187 15.3335 13.3807 15.5747C10.5988 16.6265 9.19102 19.7456 10.2429 22.5276C10.9121 24.2977 12.4187 25.5099 14.1421 25.8878C14.1528 26.5828 14.1774 27.2846 14.2174 27.9922C11.6942 28.0771 9.2611 27.9611 6.96323 27.634C6.18954 27.5238 5.44246 27.3902 4.72059 27.2363C7.06384 20.427 11.409 14.3443 17.3304 9.927ZM3.92438 29.8666C4.7779 30.0552 5.66128 30.2164 6.57721 30.3469C9.07053 30.7017 11.7091 30.824 14.4416 30.7239C14.9595 35.5534 16.1316 40.5951 17.9202 45.5969L4.65295 50.6129C2.30828 43.6884 2.18637 36.5032 3.92438 29.8666ZM23.5191 51.8089C24.357 52.0006 25.0872 52.5935 25.4135 53.4566C25.6528 54.0896 25.6307 54.7572 25.4049 55.3442C25.1429 56.0261 24.6054 56.5988 23.8703 56.8767C23.6551 56.958 23.4353 57.0062 23.216 57.03C22.0434 57.1562 20.8852 56.4862 20.4494 55.3334C20.0983 54.4049 20.3049 53.4011 20.9008 52.6894C21.1832 52.3519 21.5523 52.079 21.993 51.9123C22.4991 51.721 23.0276 51.6964 23.5191 51.8089ZM5.62697 53.1742L18.8928 48.1588C19.1522 48.8055 19.4206 49.4461 19.6967 50.0797C17.8256 51.4833 17.0182 54.0066 17.8862 56.3024C18.9234 59.0456 21.9714 60.4509 24.7239 59.4798C25.1898 60.1988 25.667 60.9015 26.1546 61.5862C24.0256 63.3273 22.1167 65.1741 20.4732 67.0999C19.8953 67.7766 19.3592 68.4552 18.8606 69.1341C13.1567 65.3331 8.47653 59.8925 5.62697 53.1742ZM21.2049 70.5703C21.6255 70.0073 22.0755 69.4433 22.5571 68.8789C24.0744 67.101 25.836 65.3931 27.8003 63.7777C29.6919 66.1677 31.7149 68.297 33.8333 70.1044C36.5519 72.4246 39.2984 74.1094 41.9857 75.1378C34.6727 75.7385 27.4384 74.0774 21.2049 70.5703ZM50.5088 73.3131C46.0851 74.3388 40.8551 72.4952 35.6124 68.0206C33.632 66.3306 31.7378 64.3375 29.9627 62.0976C33.882 59.2187 38.4652 56.6968 43.468 54.6904L50.5088 73.3131ZM42.4989 52.1273C37.2583 54.2244 32.446 56.8738 28.3194 59.9072C27.8671 59.269 27.4241 58.6141 26.9911 57.9441C28.2554 56.493 28.7033 54.4095 27.9766 52.4875C27.0756 50.1044 24.6584 48.7312 22.2352 49.0468C21.9673 48.435 21.7081 47.8151 21.456 47.1897L34.6582 42.1983C35.7886 43.7317 37.6655 44.5633 39.5638 44.3641L42.4989 52.1273ZM38.5211 41.6061C38.132 41.5338 37.7628 41.3771 37.4426 41.1456C37.0364 40.8518 36.7085 40.4416 36.5182 39.9382C36.3536 39.5028 36.3124 39.0505 36.3757 38.6194C36.4429 38.1603 36.6312 37.7269 36.9167 37.3625C37.2053 36.9937 37.5928 36.6949 38.0619 36.5176C38.5311 36.3402 39.019 36.308 39.4798 36.3935C39.9349 36.4778 40.3629 36.6783 40.717 36.9781C41.0497 37.2594 41.3181 37.6259 41.4827 38.0613C41.673 38.5646 41.6981 39.0893 41.588 39.5784C41.5013 39.9637 41.3282 40.3254 41.0842 40.6371C40.7952 41.006 40.4081 41.3047 39.9389 41.4821C39.4697 41.6594 38.9815 41.6917 38.5211 41.6061ZM53.072 72.3441L46.0311 53.7213C51.11 51.9162 56.215 50.7751 61.0586 50.3411C61.0953 51.0383 61.1185 51.7302 61.1251 52.4142C60.9131 52.4654 60.7023 52.529 60.4932 52.6081C57.7114 53.6598 56.3039 56.779 57.3557 59.5608C57.8462 60.8582 58.7866 61.8565 59.9328 62.4461C58.6119 67.2095 56.2516 70.6274 53.072 72.3441ZM60.6701 68.0738C61.4546 66.5754 62.1035 64.8926 62.6081 63.0421C63.1754 63.0206 63.7489 62.9103 64.3088 62.6986C67.0904 61.647 68.498 58.5277 67.4464 55.7458C66.8184 54.0852 65.4538 52.9149 63.8638 52.4645C63.8579 51.7078 63.8328 50.9423 63.7914 50.1705C66.3334 50.0822 68.7843 50.1974 71.0982 50.5269C71.8327 50.6315 72.5435 50.7566 73.2315 50.9009C70.8773 57.6548 66.5515 63.686 60.6701 68.0738ZM74.0388 48.2727C73.2158 48.0935 72.3648 47.9393 71.4842 47.814C68.9777 47.4572 66.3243 47.3353 63.5758 47.4383C63.0722 42.6118 61.914 37.5698 60.1378 32.5652L73.4037 27.5497C75.7115 34.4728 75.8014 41.6489 74.0388 48.2727ZM72.4394 24.9847L59.1721 30.0007C58.8945 29.3049 58.6073 28.6164 58.3106 27.9363C59.9526 26.4952 60.6202 24.1321 59.8032 21.9712C58.8168 19.3621 56.0116 17.9618 53.3719 18.6656C52.9058 17.9422 52.4288 17.2354 51.941 16.5464C54.0563 14.8137 55.9537 12.9765 57.5884 11.0609C58.1892 10.357 58.7448 9.65139 59.2604 8.94555C64.9542 12.7724 69.6165 18.2407 72.4394 24.9847Z" fill="#C2DFE1"/>
</svg>
