<svg width="113" height="114" viewBox="0 0 113 114" fill="none" xmlns="http://www.w3.org/2000/svg">
<path d="M112.637 114.008H0.237305V111.307H36.3549V60.1447C36.3549 59.6345 36.6434 59.1657 37.1005 58.9369L55.0882 49.9309V0.129791H57.7857V12.4216L62.5814 14.8222V0.129791H65.2828V16.1725L75.7771 21.4276C76.2305 21.6564 76.519 22.1252 76.519 22.6354V111.307H112.637V114.008ZM57.7857 111.307H73.8214V106.506H57.7857V111.307ZM39.0525 111.307H55.0882V106.506H39.0525V111.307ZM57.7857 103.805H73.8214V98.4904L57.7857 90.4597V103.805ZM39.0525 103.805H55.0882V90.4597L39.0525 98.4904V103.805ZM59.453 88.2766L73.8176 95.4709V81.0824L59.453 88.2766ZM39.0525 81.0824V95.4709L53.4209 88.2766L39.0525 81.0824ZM57.7857 71.705V86.0936L72.1541 78.8993L57.7857 71.705ZM40.7198 78.8993L55.0882 86.0936V71.705L40.7198 78.8993ZM59.453 69.522L73.8176 76.7163V62.3277L59.453 69.522ZM39.0525 62.3277V76.7163L53.4209 69.522L39.0525 62.3277ZM57.7857 52.9541V67.3389L72.1541 60.1447L57.7857 52.9541ZM40.7198 60.1447L55.0882 67.3389V52.9541L40.7198 60.1447ZM59.453 50.7673L73.8176 57.9579V43.5731L59.453 50.7673ZM57.7857 34.1995V48.5843L72.1541 41.39L57.7857 34.1995ZM59.453 32.0127L73.8176 39.2032V24.8222L59.453 32.0127ZM57.7857 15.4448V29.8297L72.1541 22.6354L57.7857 15.4448ZM102.745 105.156H100.048V65.2459H91.5055V97.654H88.8079V91.5024H82.6634V88.8018H88.8079V84.0006H82.6634V81.2999H88.8079V63.8956C88.8079 63.1492 89.4111 62.5453 90.1567 62.5453H100.048V45.1409C100.048 44.3945 100.651 43.7906 101.397 43.7906H112.637V46.4913H102.745V51.2925H112.637V53.9931H102.745V58.7943H112.637V61.495H102.745V66.2924H112.637V68.9969H102.745V85.0471H112.637V87.7515H102.745V105.156ZM27.8126 105.156H25.115V80.2496H7.73059V77.549H17.6217V57.7441H0.237305V55.0434H10.1284V50.2422H0.237305V47.5415H11.4772C12.2228 47.5415 12.826 48.1454 12.826 48.8919V55.0434H18.9705C19.7161 55.0434 20.3193 55.6473 20.3193 56.3937V77.549H26.4638C27.2094 77.549 27.8126 78.1529 27.8126 78.8993V105.156ZM7.73059 72.7478H0.237305V70.0471H7.73059V72.7478ZM7.73059 65.2459H0.237305V62.5453H7.73059V65.2459Z" fill="#C2DFE1"/>
</svg>
