<svg width="108" height="79" viewBox="0 0 108 79" fill="none" xmlns="http://www.w3.org/2000/svg">
<path d="M68.0435 1.27908C59.8827 5.66197 50.3441 12.7797 42.9561 19.9595C30.9334 31.6476 23.0439 44.6927 19.6628 58.4049L19.0992 60.7636H15.3627C12.5451 60.7636 11.5848 60.7004 11.5226 60.4922C11.4812 60.3669 10.7716 53.5206 9.9574 45.3183C9.16388 37.1161 8.43358 30.0823 8.37145 29.7063L8.26681 29.0381L9.58135 29.5395C12.4197 30.6044 15.8434 32.4825 20.5184 35.5301C22.5425 36.8654 23.8582 37.5968 24.2331 37.5968C25.0681 37.5968 25.8191 36.7411 25.8191 35.8016C25.8191 35.1759 25.6523 34.9045 24.9002 34.1731L23.9813 33.3174L23.3153 27.62C22.9393 24.4895 22.6679 21.8801 22.7311 21.8387C23.0232 21.5465 28.3871 23.2164 31.1426 24.4481C31.9154 24.7817 32.8125 25.0738 33.1461 25.0738C33.9603 25.0738 34.7952 24.2388 34.7952 23.4671C34.7952 22.5275 34.2317 21.9433 32.5825 21.1923C27.7615 19.0003 21.2073 17.4776 19.7674 18.2286C18.7025 18.7921 18.6818 19.0842 19.4339 25.1784C19.8099 28.2882 20.102 30.8551 20.0595 30.8976C20.0388 30.9184 19.2246 30.5009 18.2643 29.9166C14.2782 27.5154 10.1242 25.7201 7.61935 25.282C6.07482 25.0106 5.36523 25.198 4.82241 26.0123C4.50958 26.5137 4.57171 27.4729 6.28301 44.6295C7.28472 54.6062 8.14037 62.9131 8.20359 63.1006C8.26572 63.3099 8.55784 63.6641 8.85105 63.8941C9.39387 64.3116 9.51921 64.3116 54.4556 64.3116H99.5379L100.143 63.7066C100.79 63.0603 100.894 62.4749 100.498 61.7446C100.019 60.8258 99.7679 60.7844 95.76 60.7636H91.921L92.0671 59.0316C92.4639 54.0852 94.2166 46.8215 96.1993 41.7704C96.9296 39.8923 98.9123 35.6969 99.0169 35.7798C99.0376 35.8212 98.8502 37.4911 98.558 39.4945C97.8484 44.6284 97.4103 49.0745 97.2642 52.8317L97.1389 56.0875L97.8277 56.6718C98.6627 57.3607 99.539 57.2985 100.249 56.505C100.625 56.0668 100.708 55.6494 100.812 52.9571C101.084 47.1125 102.085 39.0356 103.588 30.8333C104.319 26.7426 104.339 26.5333 104.006 26.0123C103.234 24.822 102.023 24.9473 96.4707 26.7851C85.889 30.2709 76.6425 35.9683 70.6519 42.71C66.4772 47.385 63.7642 52.4775 62.3657 58.2599L61.7607 60.6601L52.9742 60.7222L44.1878 60.7647L44.3131 60.2012C44.397 59.8677 44.772 58.5738 45.1688 57.3214C48.8617 45.7358 56.7729 35.7383 68.5024 27.8075C71.8421 25.5327 78.5413 21.734 79.168 21.734C79.252 21.734 78.0617 23.0279 76.5172 24.5931C72.3632 28.8713 69.358 32.7332 66.8739 37.0747C64.9741 40.3719 64.7026 41.8129 65.809 42.5432C66.4139 42.94 67.4582 42.9607 67.917 42.5846C68.0838 42.4386 68.6681 41.4161 69.2316 40.3305C70.5047 37.7843 72.6335 34.5491 74.8876 31.7522C76.5368 29.6856 81.7339 24.1549 81.88 24.301C81.9214 24.3217 81.8178 24.8645 81.65 25.4912C81.4821 26.118 81.2739 27.2233 81.2118 27.9328C81.0864 29.1646 81.1071 29.2474 81.7121 29.8534C82.1088 30.2502 82.5677 30.5009 82.9013 30.5009C83.6741 30.5009 84.6758 29.4578 84.6758 28.6642C84.6758 27.7672 85.4268 24.9702 86.0121 23.7385L86.5125 22.6736L86.5332 24.2803C86.5539 25.6155 86.6378 25.9916 86.9713 26.3262C87.5349 26.8897 88.3077 27.0358 88.9748 26.7022C90.0179 26.2226 90.1018 25.7845 90.1018 20.7955C90.1018 16.8301 90.0604 16.0998 89.7258 15.4731C89.1415 14.3046 88.4941 14.2414 85.8018 15.1602C73.6167 19.3338 61.0926 27.4729 53.3917 36.219C47.3804 43.0446 43.2482 50.5373 41.0987 58.5313L40.5352 60.6601L31.7062 60.7222C23.2739 60.7647 22.8979 60.7429 22.8979 60.3887C22.8979 60.1794 23.2107 58.8235 23.6075 57.3836C26.0916 48.3039 31.2255 38.8917 38.3225 30.3134C41.1183 26.9519 48.1107 19.9595 51.5965 17.0579C54.122 14.9499 58.9431 11.2559 60.3415 10.337C60.8004 10.0656 60.5083 10.5245 59.2559 12.1736C55.7287 16.8072 52.0761 22.6507 49.5506 27.6811C47.1918 32.4193 45.3344 37.1357 45.5426 37.9499C45.7301 38.7642 46.3983 39.2645 47.2746 39.2645C48.2971 39.2645 48.757 38.7631 49.4034 36.969C51.094 32.1479 54.788 25.0302 58.4406 19.5409C60.1105 17.0361 62.6153 13.5721 62.6981 13.6549C62.7188 13.6964 62.6567 14.0517 62.5521 14.4485C62.2185 15.5755 61.7378 18.5599 61.5918 20.4173C61.4457 22.1286 61.4457 22.1286 62.0921 22.7553C62.8638 23.5489 63.5527 23.5696 64.3876 22.8807C64.9512 22.4218 65.0133 22.2125 65.1386 20.6473C65.4722 16.9326 66.5578 12.6325 67.977 9.56417L68.582 8.27034V13.28C68.6027 18.7071 68.6866 19.1246 69.7297 19.6042C70.4186 19.9595 71.1696 19.7916 71.7331 19.1867C72.1299 18.7485 72.1506 18.4771 72.1506 10.0034V1.25837L71.6285 0.756966C70.9026 0.00595856 70.2137 0.110603 68.0435 1.27908ZM91.1482 33.5681C87.4335 37.5336 84.8033 41.3322 82.4871 46.029C80.7126 49.6184 78.9173 54.8155 78.187 58.4049L77.7281 60.7636H71.5707H65.434L65.5594 59.9701C66.1436 56.6304 68.4817 51.3711 70.7772 48.1567C75.0773 42.1661 81.6718 36.9907 89.8958 33.1921C91.3357 32.5239 92.5467 31.9811 92.5674 31.9604C92.6099 31.9604 91.9624 32.6918 91.1482 33.5681ZM94.0498 37.6589C91.0861 44.3166 89.0402 52.1025 88.4766 58.8016L88.3306 60.659L84.824 60.7211C81.5475 60.7637 81.3175 60.7419 81.4014 60.4083C81.4636 60.199 81.6314 59.5112 81.7568 58.8845C83.2174 52.1636 86.495 45.0884 90.7111 39.5784C91.4828 38.556 95.2608 34.4652 95.4276 34.4652C95.4483 34.4652 94.8422 35.9051 94.0498 37.6589Z" fill="#C2DFE1"/>
<path d="M5.3444 68.131C4.38411 68.8613 4.30127 69.9676 5.13512 70.8026L5.74007 71.4075H54.414H103.087L103.692 70.8026C104.527 69.9676 104.443 68.8613 103.483 68.131C103.003 67.756 5.824 67.756 5.3444 68.131Z" fill="#C2DFE1"/>
<path d="M1.90129 75.2072C1.39989 75.4372 0.982422 76.2089 0.982422 76.8564C0.982422 77.0864 1.25383 77.566 1.58737 77.8995L2.19232 78.5045H54.4142H106.635L107.24 77.8995C108.116 77.0014 107.95 75.6868 106.864 75.1865C106.176 74.8726 2.54766 74.8933 1.90129 75.2072Z" fill="#C2DFE1"/>
</svg>
